PathFileType	4	(X/Y/Z)	/Users/itak/Documents/Research/Walk-IL/dataset/trc/00362_00011.trc
DataRate	CameraRate	NumFrames	NumMarkers	Units	OrigDataRate	OrigDataStartFrame	OrigNumFrames
100.000000	100.000000	4	54	mm	100.000000	74	593
Frame#	Time	RPSI			LPSI			L3			STRN			T10			C7			CLAV			RBAK			LBAK			LSHO			LUPA			LAEL			LAOL			LWPS			LFRA			LIFD			LHPS			LHTS			RSHO			RUPA			RAEL			RAOL			RWPS			RFRA			RIFD			RHTS			RHPS			RBHD			LFHD			RFHD			LBHD			LHIP			RHIP			RASI			LASI			LKNE			LTHI			LANK			LTIP			LTOE			LMT1			LMT5			LHEE			RKNE			RTHI			RTIP			RTOE			RMT1			RMT5			RHEE			LWTS			RWTS			RANK			*53			
		X1	Y1	Z1	X2	Y2	Z2	X3	Y3	Z3	X4	Y4	Z4	X5	Y5	Z5	X6	Y6	Z6	X7	Y7	Z7	X8	Y8	Z8	X9	Y9	Z9	X10	Y10	Z10	X11	Y11	Z11	X12	Y12	Z12	X13	Y13	Z13	X14	Y14	Z14	X15	Y15	Z15	X16	Y16	Z16	X17	Y17	Z17	X18	Y18	Z18	X19	Y19	Z19	X20	Y20	Z20	X21	Y21	Z21	X22	Y22	Z22	X23	Y23	Z23	X24	Y24	Z24	X25	Y25	Z25	X26	Y26	Z26	X27	Y27	Z27	X28	Y28	Z28	X29	Y29	Z29	X30	Y30	Z30	X31	Y31	Z31	X32	Y32	Z32	X33	Y33	Z33	X34	Y34	Z34	X35	Y35	Z35	X36	Y36	Z36	X37	Y37	Z37	X38	Y38	Z38	X39	Y39	Z39	X40	Y40	Z40	X41	Y41	Z41	X42	Y42	Z42	X43	Y43	Z43	X44	Y44	Z44	X45	Y45	Z45	X46	Y46	Z46	X47	Y47	Z47	X48	Y48	Z48	X49	Y49	Z49	X50	Y50	Z50	X51	Y51	Z51	X52	Y52	Z52	X53	Y53	Z53	X54	Y54	Z54	

75	0.74	-1385.774658203125	983.3302612304688	844.6559448242188	-1377.02783203125	980.499267578125	716.6761474609375	-1382.400634765625	1034.849365234375	783.5529174804688	-1160.169311523438	1221.853515625	779.9541625976562	-1395.98486328125	1154.628540039062	770.0534057617188	-1354.992431640625	1402.546630859375	753.2421875	-1200.421508789062	1347.865478515625	771.0745849609375	-1408.11767578125	1265.47607421875	821.198486328125	-1358.655395507812	1363.610473632812	650.3826293945312	-1268.993896484375	1380.123413085938	599.6015625	-1278.792846679688	1256.50146484375	535.9552001953125	-1252.107543945312	1051.886840820312	535.9607543945312	-1318.369995117188	1038.68017578125	587.8699951171875	-1188.8955078125	800.2099609375	540.6724853515625	-1233.285888671875	947.96044921875	535.7999877929688	-1146.139282226562	651.9636840820312	603.7537841796875	-1191.771484375	731.1931762695312	548.5576171875	-1140.11279296875	736.7211303710938	585.5491333007812	-1309.470092773438	1393.480590820312	921.7909545898438	-1322.208740234375	1328.168212890625	984.218505859375	-1303.23583984375	1057.8740234375	1020.261840820312	-1340.875610351562	1050.879638671875	934.2498168945312	-1222.644409179688	816.662841796875	1037.196899414062	-1276.388671875	992.0708618164062	1028.967651367188	-1171.83642578125	659.5206298828125	981.0195922851562	-1155.0205078125	735.3958740234375	985.765625	-1206.27978515625	733.8695678710938	1035.416381835938	-1325.933349609375	1607.313232421875	832.2967529296875	-1143.282958984375	1625.434692382812	734.4093017578125	-1164.276245117188	1626.833251953125	832.447998046875	-1321.906005859375	1599.297241210938	688.3194580078125	-1290.168334960938	924.5964965820312	613.91796875	-1315.66162109375	929.983642578125	959.2139892578125	-1206.220458984375	955.8654174804688	922.6638793945312	-1168.09423828125	945.0095825195312	685.77490234375	-1268.382568359375	469.4934692382812	611.7959594726562	-1252.89111328125	605.8447265625	608.8612670898438	-1342.925048828125	52.14563751220703	594.3744506835938	-1306.85302734375	256.088623046875	589.5467529296875	-1144.025390625	45.79682159423828	674.783935546875	-1217.48681640625	34.08562469482422	706.8312377929688	-1215.298828125	48.40132522583008	594.4423217773438	-1383.2802734375	45.31295394897461	657.6441040039062	-1302.6435546875	469.5934143066406	969.933349609375	-1246.741943359375	725.7474365234375	977.7545776367188	-1300.117919921875	353.5338745117188	971.84130859375	-1169.59130859375	45.74449157714844	938.59326171875	-1222.1904296875	44.75114440917969	892.996826171875	-1267.776000976562	38.86937713623047	1002.970153808594	-1394.2265625	27.69819068908691	954.90966796875	-1150.436279296875	815.6345825195312	598.2926025390625	-1187.722412109375	832.4125366210938	969.8070068359375	-1368.255493164062	51.49502563476562	978.3385620117188	nan	nan	nan	
76	0.75	-1385.643188476562	983.3367919921875	844.7025756835938	-1376.895385742188	980.5645141601562	716.6882934570312	-1382.213134765625	1034.809204101562	783.5095825195312	-1160.013549804688	1221.87890625	779.908447265625	-1395.80859375	1154.657348632812	770.0673217773438	-1354.805786132812	1402.566772460938	753.2880249023438	-1200.191040039062	1347.942626953125	771.1443481445312	-1407.965209960938	1265.497680664062	821.2310180664062	-1358.550903320312	1363.712646484375	650.415771484375	-1268.79638671875	1380.111206054688	599.6488647460938	-1278.615356445312	1256.561279296875	535.9150390625	-1251.949829101562	1051.9951171875	535.71142578125	-1318.169189453125	1038.710815429688	587.6513061523438	-1188.71337890625	800.2742309570312	540.138427734375	-1233.058227539062	948.06494140625	535.4853515625	-1145.88525390625	651.9830322265625	603.0606689453125	-1191.572143554688	731.1498413085938	547.9358520507812	-1139.825927734375	736.78515625	585.004150390625	-1309.28759765625	1393.48681640625	921.8224487304688	-1322.010620117188	1328.17138671875	984.2472534179688	-1303.0517578125	1057.93603515625	1020.300598144531	-1340.726318359375	1050.870971679688	934.2578735351562	-1222.467895507812	816.6865234375	1037.259643554688	-1276.228637695312	992.1318359375	1029.048095703125	-1171.7685546875	659.5245971679688	980.9915161132812	-1155.168823242188	735.0994262695312	985.580322265625	-1206.110229492188	733.7667236328125	1035.2763671875	-1325.744140625	1607.3095703125	832.2647094726562	-1143.162109375	1625.405395507812	734.3375244140625	-1164.0859375	1626.8212890625	832.412109375	-1321.707397460938	1599.248413085938	688.3269653320312	-1290.008422851562	924.6094360351562	613.937744140625	-1315.253295898438	929.6947021484375	958.8411865234375	-1206.120971679688	955.7944946289062	922.65234375	-1167.960083007812	945.059814453125	685.822021484375	-1268.339965820312	469.4939575195312	611.7871704101562	-1252.8037109375	605.8394775390625	608.8212280273438	-1342.921142578125	52.14770126342773	594.3768310546875	-1306.825805664062	256.0993347167969	589.5299072265625	-1144.026611328125	45.79545974731445	674.7857666015625	-1217.48583984375	34.09028244018555	706.8356323242188	-1215.302490234375	48.40734100341797	594.4412231445312	-1383.28564453125	45.31278991699219	657.6539916992188	-1302.596923828125	469.5994567871094	969.9335327148438	-1246.2607421875	725.4336547851562	977.3095703125	-1300.080932617188	353.5375366210938	971.838134765625	-1169.588012695312	45.74168014526367	938.5947875976562	-1222.191650390625	44.76762390136719	892.9948120117188	-1267.78125	38.86154556274414	1002.960815429688	-1394.225341796875	27.69797325134277	954.9067993164062	-1150.2158203125	815.6439208984375	597.8760986328125	-1187.589721679688	832.3558959960938	969.78515625	-1368.253662109375	51.49653625488281	978.3391723632812	nan	nan	nan	
77	0.76	-1385.522338867188	983.3511352539062	844.7394409179688	-1376.772583007812	980.6337890625	716.69140625	-1382.015625	1034.7626953125	783.4658813476562	-1159.86962890625	1221.893920898438	779.877197265625	-1395.644775390625	1154.6845703125	770.0635375976562	-1354.615966796875	1402.590576171875	753.3272705078125	-1199.939819335938	1348.027709960938	771.2045288085938	-1407.797119140625	1265.521606445312	821.26318359375	-1358.42333984375	1363.812744140625	650.4515380859375	-1268.561645507812	1380.096557617188	599.7308349609375	-1278.399047851562	1256.633666992188	535.8755493164062	-1251.780395507812	1052.10498046875	535.4736328125	-1317.993408203125	1038.772338867188	587.4214477539062	-1188.563598632812	800.3377685546875	539.6171264648438	-1232.842041015625	948.17822265625	535.1671752929688	-1145.649536132812	652.0103149414062	602.3915405273438	-1191.393920898438	731.0875854492188	547.3414916992188	-1139.561401367188	736.8309936523438	584.462158203125	-1309.1103515625	1393.490600585938	921.8722534179688	-1321.802368164062	1328.159423828125	984.2776489257812	-1302.84375	1058.003540039062	1020.338623046875	-1340.58203125	1050.8623046875	934.2504272460938	-1222.280517578125	816.7000732421875	1037.295043945312	-1276.070678710938	992.1790771484375	1029.102661132812	-1171.68115234375	659.532958984375	980.9558715820312	-1155.49755859375	734.5774536132812	985.2655639648438	-1205.894165039062	733.63134765625	1035.078002929688	-1325.544311523438	1607.303833007812	832.2318115234375	-1143.03564453125	1625.377685546875	734.2586059570312	-1163.90185546875	1626.8193359375	832.3912963867188	-1321.51123046875	1599.199096679688	688.3383178710938	-1289.849365234375	924.616455078125	613.9705810546875	-1314.898559570312	929.4678344726562	958.5474243164062	-1206.024658203125	955.7245483398438	922.65234375	-1167.817626953125	945.1156616210938	685.8723754882812	-1268.281982421875	469.4905395507812	611.7864990234375	-1252.706176757812	605.832275390625	608.7776489257812	-1342.9169921875	52.15069580078125	594.3794555664062	-1306.795288085938	256.112548828125	589.5119018554688	-1144.02783203125	45.79423522949219	674.78662109375	-1217.482421875	34.09248733520508	706.8392333984375	-1215.303344726562	48.40999984741211	594.4413452148438	-1383.287475585938	45.3123893737793	657.6626586914062	-1302.553344726562	469.6062622070312	969.9327392578125	-1245.832885742188	725.181884765625	976.9434814453125	-1300.045532226562	353.5404357910156	971.8340454101562	-1169.583862304688	45.73890686035156	938.5963745117188	-1222.191162109375	44.77318954467773	892.9923706054688	-1267.784545898438	38.85670852661133	1002.953430175781	-1394.224975585938	27.69771003723145	954.9068603515625	-1150.013305664062	815.6435546875	597.4298706054688	-1187.457153320312	832.28759765625	969.7422485351562	-1368.252197265625	51.49723434448242	978.3392944335938	nan	nan	nan	
78	0.77	-1385.412719726562	983.3716430664062	844.765869140625	-1376.656860351562	980.7072143554688	716.6876831054688	-1381.810668945312	1034.716064453125	783.4265747070312	-1159.732788085938	1221.899291992188	779.8566284179688	-1395.505615234375	1154.709838867188	770.032470703125	-1354.425537109375	1402.618530273438	753.3579711914062	-1199.67041015625	1348.11962890625	771.2528076171875	-1407.614501953125	1265.5498046875	821.295166015625	-1358.267578125	1363.90625	650.4844970703125	-1268.292724609375	1380.083374023438	599.8441162109375	-1278.144165039062	1256.7177734375	535.8375854492188	-1251.590698242188	1052.217407226562	535.2432861328125	-1317.83251953125	1038.861938476562	587.1820678710938	-1188.429809570312	800.400634765625	539.104248046875	-1232.6416015625	948.2994384765625	534.8399047851562	-1145.423828125	652.0491333007812	601.7348022460938	-1191.239135742188	731.0211791992188	546.7689208984375	-1139.33740234375	736.8593139648438	583.920166015625	-1308.931884765625	1393.493774414062	921.9388427734375	-1321.578247070312	1328.137084960938	984.3123779296875	-1302.60888671875	1058.072631835938	1020.372375488281	-1340.439819335938	1050.857177734375	934.2329711914062	-1222.08251953125	816.703369140625	1037.302001953125	-1275.909301757812	992.2113037109375	1029.129516601562	-1171.580322265625	659.542724609375	980.9140625	-1155.932373046875	733.9302368164062	984.8818359375	-1205.634643554688	733.4724731445312	1034.831787109375	-1325.338623046875	1607.299560546875	832.2039794921875	-1142.900634765625	1625.3515625	734.17138671875	-1163.72021484375	1626.824829101562	832.3820190429688	-1321.325561523438	1599.150146484375	688.3550415039062	-1289.692016601562	924.6220092773438	614.0173950195312	-1314.595825195312	929.3087158203125	958.3474731445312	-1205.929077148438	955.6600341796875	922.6635131835938	-1167.666748046875	945.1753540039062	685.921875	-1268.210327148438	469.4840393066406	611.79150390625	-1252.599853515625	605.822998046875	608.7310791015625	-1342.912231445312	52.15488815307617	594.38232421875	-1306.760864257812	256.1278686523438	589.4935913085938	-1144.028198242188	45.79296875	674.7867431640625	-1217.476440429688	34.09110260009766	706.8410034179688	-1215.299194335938	48.40620040893555	594.444091796875	-1383.28515625	45.31277084350586	657.67041015625	-1302.514282226562	469.6128540039062	969.9303588867188	-1245.45703125	724.9977416992188	976.6710815429688	-1300.013305664062	353.5437316894531	971.8281860351562	-1169.579223632812	45.73706817626953	938.5977783203125	-1222.1884765625	44.76499938964844	892.9896850585938	-1267.78369140625	38.85640335083008	1002.949157714844	-1394.224609375	27.69750785827637	954.9066772460938	-1149.840087890625	815.6221923828125	596.955322265625	-1187.334228515625	832.213134765625	969.6835327148438	-1368.250854492188	51.49755859375	978.3387451171875	nan	nan	nan	
